inDegrees=no
num_controls=7
num_derivatives=13
num_iterations=150
num_multipliers=7
num_parameters=0
num_slacks=7
num_states=26
objective=5.114262
objective_accelerations=0.635961
objective_balance=0.016639
objective_effort=0.163247
objective_height=4.248031
objective_ligament=0.050384
solver_duration=1656.931545
status=Solve_Succeeded
success=true
DataType=double
version=3
OpenSimVersion=4.4-2022-07-23-0e9fedc
endheader
time	/jointset/ground_pelvis/pelvis_tilt/value	/jointset/ground_pelvis/pelvis_tx/value	/jointset/ground_pelvis/pelvis_ty/value	/jointset/hip_l/hip_flexion_l/value	/jointset/hip_l/hip_adduction_l/value	/jointset/hip_l/hip_rotation_l/value	/jointset/back/lumbar_extension/value	/jointset/patellofemoral_l/patellar_flexion_l/value	/jointset/knee_l/knee_flexion_l/value	/jointset/knee_l/knee_adduction_l/value	/jointset/knee_l/knee_rotation_l/value	/jointset/ankle_l/ankle_angle_l/value	/jointset/subtalar_l/subtalar_angle_l/value	/jointset/ground_pelvis/pelvis_tilt/speed	/jointset/ground_pelvis/pelvis_tx/speed	/jointset/ground_pelvis/pelvis_ty/speed	/jointset/hip_l/hip_flexion_l/speed	/jointset/hip_l/hip_adduction_l/speed	/jointset/hip_l/hip_rotation_l/speed	/jointset/back/lumbar_extension/speed	/jointset/patellofemoral_l/patellar_flexion_l/speed	/jointset/knee_l/knee_flexion_l/speed	/jointset/knee_l/knee_adduction_l/speed	/jointset/knee_l/knee_rotation_l/speed	/jointset/ankle_l/ankle_angle_l/speed	/jointset/subtalar_l/subtalar_angle_l/speed	/forceset/tau_hip_flexion_l	/forceset/tau_hip_adduction_l	/forceset/tau_hip_rotation_l	/forceset/tau_knee_flexion_l	/forceset/tau_ankle_angle_l	/forceset/tau_subtalar_angle_l	/forceset/tau_lumbar_extension	lambda_cid13_p0	lambda_cid13_p1	lambda_cid13_p2	lambda_cid13_p3	lambda_cid13_p4	lambda_cid13_p5	lambda_cid14_p0	/jointset/ground_pelvis/pelvis_tilt/accel	/jointset/ground_pelvis/pelvis_tx/accel	/jointset/ground_pelvis/pelvis_ty/accel	/jointset/hip_l/hip_flexion_l/accel	/jointset/hip_l/hip_adduction_l/accel	/jointset/hip_l/hip_rotation_l/accel	/jointset/back/lumbar_extension/accel	/jointset/patellofemoral_l/patellar_flexion_l/accel	/jointset/knee_l/knee_flexion_l/accel	/jointset/knee_l/knee_adduction_l/accel	/jointset/knee_l/knee_rotation_l/accel	/jointset/ankle_l/ankle_angle_l/accel	/jointset/subtalar_l/subtalar_angle_l/accel	gamma_cid13_p0	gamma_cid13_p1	gamma_cid13_p2	gamma_cid13_p3	gamma_cid13_p4	gamma_cid13_p5	gamma_cid14_p0
0.5	-0.1848480138961459	0.04210288490913505	0.7857295959972336	0.9108404944834098	-0.3671010263994722	-0.01128153969237317	-0.3970892837619996	0.9149669651547719	0.9149669651547724	-0.04746075439778984	-0.1745276032839481	0.313321765219702	0.1584176295756265	-0.6696788661778701	-0.1531164583885844	-0.4666801814257975	2.179431822676642	0.03113084656849414	0.5216038836221785	-0.315515819984982	1.882166707807387	1.882166707807387	0.2814966937190243	0.000137703018170391	0.5303217117899801	0.2605167716139156	-0.08981799000858191	0.01783704751844532	0.001670960790538563	-0.2022406063654772	-0.002654627496775626	0.02183326950287922	0.107895837271326	-24.5948454670787	-5.084298473308675	0.4250381969415409	-0.2116089164913067	-441.6512564616698	-75.5719219711178	-6.474586844374804	0.1660786883393336	0.3381951841522404	-0.4248497801626769	-1.021232457386114	0.09033396690493732	-0.7074259363465796	1.318066929364956	-1.476485780802923	-1.476485780802923	-0.2377040816777247	0.003541323533225282	-0.7800401574021582	0.09958965651702338	-4.093373806434283e-07	-1.379451997672137e-06	5.095835451962007e-06	1.235090323029138e-07	-1.107321284688189e-06	-2.050538677103713e-06	-7.182325068125079e-07
0.51	-0.1915347007544596	0.04058896732636116	0.7810427410960463	0.9325790113439152	-0.3667877223246278	-0.006096727078797349	-0.4001792810369635	0.933711106399339	0.9337111063993397	-0.04466584013580958	-0.1745266225762184	0.3185843924703651	0.1610235124200475	-0.6675734868624126	-0.1496407634572509	-0.4705811479843316	2.16796637624353	0.03153294627855541	0.5153228891200949	-0.3024549904971104	1.866385349366572	1.866385349366572	0.2774813513865653	6.613757650949924e-05	0.5221379063450199	0.2606257353079342	-0.09385332970272711	0.01825429552036064	0.001012262611206221	-0.2046589475889946	-0.003990757117666431	0.02293628112114321	0.1110497291050404	-25.08852238503868	-5.453116817793527	0.4566739002715965	-0.2524731855077874	-444.6002122217345	-76.31576489776968	-5.790382860550719	0.2454911821141584	0.3562325812301031	-0.3564951211370632	-1.255026621676679	0.01486148275230482	-0.5944984276895139	1.304387635103698	-1.670246373051677	-1.670246373051717	-0.4842387858667651	-0.01040581244294501	-0.8474793785578397	-0.03900216085900229	-3.966522210969558e-07	-9.819490571026721e-07	5.169925254252033e-06	1.761471702881458e-07	-1.084363271502194e-06	-1.741568930750621e-06	-6.985192137570276e-07
0.52	-0.1981977890938257	0.03911060187962184	0.7763201215237863	0.9541937085630088	-0.3664704545507436	-0.0009759368543524104	-0.4031378106817277	0.9522891769600317	0.9522891769600327	-0.04191123719252122	-0.1745259375897907	0.3237631959384756	0.1636293745240681	-0.6649591623883475	-0.1460060311816692	-0.4738331156403968	2.154667894394299	0.03192358637643999	0.5087994057960007	-0.2892222939450209	1.84895257103252	1.848952571032519	0.2734344299806357	7.855875776023865e-05	0.5135569552794644	0.2605126235338214	-0.09788866939687217	0.01867154352227598	0.000353564431874195	-0.2070772888125118	-0.005326886738557195	0.02403929273940723	0.1142036209387549	-25.57512442529026	-5.834627312307001	0.5034179053129442	-0.3397186153726103	-447.4813624112926	-77.17151991335413	-5.150707130059509	0.2678677200607664	0.3700026530018948	-0.295049999668873	-1.38783954061018	0.08804204446959894	-0.7559237007486871	1.352440342208566	-1.806769759450415	-1.806769759450416	-0.244019896371778	0.02033864811550886	-0.8594692815211934	0.05517456289074506	-3.729290904754215e-07	-6.499248884674583e-07	5.042334080775798e-06	2.115262204349718e-07	-1.025984807634754e-06	-1.397856716656646e-06	-6.625585268917259e-07
0.53	-0.204832275176539	0.03766927320706466	0.7715682307453231	0.9756666548311201	-0.3661491703884597	0.004078614437172184	-0.4059631264399286	0.9706850317989253	0.9706850317989248	-0.03919710000571945	-0.1745246241359598	0.3288543280496854	0.166233185738256	-0.6618510408349462	-0.1422432415210189	-0.476433758166904	2.139630463371748	0.03232467347866794	0.5020470372587041	-0.2758198857024504	1.829960169220319	1.829960169220319	0.2693919787030168	0.0001518296481990235	0.5046028582933387	0.2601961416941279	-0.1020980107208917	0.01972943308887704	-0.0002204458873043435	-0.2092921237652242	-0.006962391718091666	0.02447256230151397	0.1174314661596339	-26.23149635875752	-5.841967174649748	0.429309569596215	-0.18994138093583	-450.4763609533493	-77.25598774465472	-4.55521948431924	0.345314333288554	0.381932415739311	-0.2260781606141785	-1.605371098916921	0.01411747237006172	-0.6450836043165858	1.337286864189213	-1.984080786969326	-1.984080786969304	-0.484520719985479	-0.003101704304476893	-0.9233978029265135	-0.08359937569688591	-3.510672109484309e-07	-3.460092349976181e-07	4.939201343116711e-06	2.438589993771689e-07	-9.726953459005821e-07	-1.079808751780347e-06	-6.317488311302319e-07
